<svg width="1602" height="786" viewBox="0 0 1602 786" fill="none" xmlns="http://www.w3.org/2000/svg">
<path d="M1561.95 0H40.05C13.35 0 0 17.4667 0 52.4V157.2C40.05 174.667 60.075 200.867 60.075 235.8C60.075 270.733 40.05 296.933 0 314.4V471.6C40.05 489.067 60.075 515.267 60.075 550.2C60.075 585.133 40.05 611.333 0 628.8V733.6C0 768.533 13.35 786 40.05 786H1561.95C1588.65 786 1602 768.533 1602 733.6V628.8C1561.95 611.333 1541.93 585.133 1541.93 550.2C1541.93 515.267 1561.95 489.067 1602 471.6V314.4C1561.95 296.933 1541.93 270.733 1541.93 235.8C1541.93 200.867 1561.95 174.667 1602 157.2V52.4C1602 17.4667 1588.65 0 1561.95 0Z" fill="#D88F65"/>
</svg>
