<?xml version="1.0" encoding="UTF-8"?><svg xmlns="http://www.w3.org/2000/svg" viewBox="0 0 306.64 100"><defs><style>.d{fill:none;}.e{fill:#0069b4;}.f{fill:#007f43;}.g{fill:#ffc629;}.h{fill:#8b6636;}.i{fill:#93cfdb;}</style></defs><g id="a"/><g id="b"><g id="c"><g><path class="e" d="M0,90.72c15.88-7.54,34.03-13.33,51.55-9.24,9.71,2.26,19.34,5.6,29.19,7.17,4.79,.76,9.56-.24,14.05-1.95,1.43-.55,10.96-7.5,10.9-7.18-1.07,5.41-3.59,10.02-4,10.67-4.8,7.67-10.55,9.99-19.46,9.8-18.5-.39-32.28-13.32-51.13-12.98-12.46,.22-31.08,3.71-31.08,3.71Z"/><path class="f" d="M68.3,33.68s7.15-3.61,14.08-22.8c0,0,30.29,21.87,23.03,40.95-7.16,19.08-29.18,9.28-29.96,9.28s5.59-14.23,1.45-18.36c-4.14-4.13-4.92-7.01-8.61-9.08"/><path class="d" d="M68.3,33.68s7.15-3.61,14.08-22.8c0,0,30.29,21.87,23.03,40.95-7.16,19.08-29.18,9.28-29.96,9.28s5.59-14.23,1.45-18.36c-4.14-4.13-4.92-7.01-8.61-9.08Z"/><path class="h" d="M.22,84.74c13.91-8.91,19.82-24.58,25.32-39.43,2.24-6.05,4.98-32.05,13.57-28.82,5.49,2.06,5.76,10.1,9.82,12.6,.96,.59,8.25-21.71,9.52-23.93,3.98-6.95,7.89-5.89,13.36-2.57,6.54,3.97,8.55,5.21,4.88,12.22-2.47-2.01-6.06-6.48-9.15-7.26-2.76-.69-6.99,10.24-8.12,13.12-1.88,4.79-3.62,9.73-5.91,14.34-3.3,6.65-9.22-1.83-11.82-4.7-2.97-3.27-4.3-.1-5.67,3.3-3.53,8.78-5.93,17.8-10.25,26.29-4.92,9.66-10.58,15.59-18.17,23.2l-7.38,1.65Z"/><path class="g" d="M63.88,37.96c-.6,1.26-1.1,2.72-1.38,4.38-.35,1.7-.5,3.46-.52,5.3-.08,1.88,.06,3.71,.23,5.45,.2,1.8,.5,3.46,.88,4.99,.42,1.59,.94,2.79,1.52,3.79,.58,1,1.2,1.64,1.96,1.95,.8,.37,1.57,.26,2.38-.21,1-.58,1.82-1.47,2.42-2.73,.6-1.26,1.1-2.72,1.45-4.42,.29-1.67,.44-3.42,.52-5.3,.02-1.84-.06-3.71-.27-5.51-.17-1.74-.53-3.36-.94-4.95-.42-1.59-.88-2.82-1.46-3.82-.54-.94-1.22-1.54-2.02-1.91-.76-.31-1.57-.26-2.32,.17-1,.58-1.84,1.57-2.45,2.83Zm27.21-8.55c-.08,.3-.15,.75-.31,1.34-.16,.59-.41,1.32-.75,2.02-.35,.7-.75,1.44-1.26,2.15-.57,.75-1.25,1.3-2.06,1.77-1.12,.65-2.2,.94-3.37,.95-1.16,0-2.34-.31-3.54-.79l-.13,.07c1.26,2.19,1.89,4.57,2.01,7.09,.15,2.58-.25,5.06-1.07,7.53-.82,2.47-2.11,4.72-3.73,6.82-1.72,2.07-3.71,3.81-6.02,5.14-1.37,.79-2.86,1.4-4.25,1.87-1.49,.45-2.87,.66-4.26,.55-1.36-.05-2.68-.45-3.95-1.22-1.24-.7-2.25-1.87-3.18-3.49-1.37-2.37-2.04-4.82-2.03-7.41,.04-2.52,.54-4.98,1.5-7.36,.96-2.39,2.38-4.54,4.19-6.59,1.85-1.99,3.82-3.62,6.01-4.89,1.75-1.01,3.39-1.63,4.87-1.81,1.41-.15,2.77-.1,4.02,.18,1.24,.28,2.36,.63,3.43,1.18,1.07,.55,2.1,1.04,3.09,1.46,.99,.43,1.94,.63,2.92,.73,.98,.1,1.99-.15,3.06-.76,.94-.54,1.79-1.37,2.47-2.51,.67-1.14,1.21-2.53,1.56-4.23l.79,.21Z"/><path class="i" d="M18.16,79.89c12.7-4.63,27.22-8.18,41.23-5.67,7.76,1.39,15.47,3.44,23.35,4.4,3.83,.47,7.65-.15,11.24-1.2,1.15-.34,8.77-4.61,8.72-4.41-.86,3.32-2.87,6.15-3.2,6.55-3.84,4.71-8.44,6.13-15.57,6.02-14.79-.24-25.82-8.18-40.9-7.97-9.97,.13-24.86,2.28-24.86,2.28Z"/></g><g><path d="M137.49,22.33c-1.14-.62-2.03-1.48-2.68-2.57-.65-1.09-.97-2.33-.97-3.7s.33-2.61,.98-3.7c.65-1.09,1.55-1.95,2.69-2.57s2.42-.93,3.83-.93c1.15,0,2.19,.2,3.14,.6s1.75,.98,2.4,1.74l-1.68,1.58c-1.01-1.09-2.26-1.64-3.74-1.64-.96,0-1.82,.21-2.58,.63s-1.35,1-1.78,1.75c-.43,.75-.64,1.59-.64,2.54s.21,1.79,.64,2.54c.43,.75,1.02,1.33,1.78,1.75s1.62,.63,2.58,.63c1.48,0,2.73-.55,3.74-1.66l1.68,1.6c-.65,.76-1.46,1.34-2.41,1.74-.95,.4-2,.6-3.15,.6-1.41,0-2.69-.31-3.83-.93Z"/><path d="M150.62,22.5c-.87-.47-1.54-1.12-2.03-1.95-.49-.83-.73-1.78-.73-2.83s.24-1.99,.73-2.82c.49-.83,1.16-1.47,2.03-1.94,.87-.47,1.84-.7,2.92-.7s2.07,.23,2.94,.7c.87,.47,1.54,1.11,2.03,1.94,.49,.83,.73,1.77,.73,2.82s-.24,2-.73,2.83c-.49,.83-1.16,1.48-2.03,1.95-.87,.47-1.85,.7-2.94,.7s-2.05-.23-2.92-.7Zm5.2-2.36c.6-.61,.9-1.42,.9-2.42s-.3-1.81-.9-2.42c-.6-.61-1.36-.92-2.28-.92s-1.68,.31-2.27,.92-.89,1.42-.89,2.42,.3,1.81,.89,2.42,1.35,.92,2.27,.92,1.68-.31,2.28-.92Z"/><path d="M178.31,13.43c.79,.78,1.18,1.95,1.18,3.51v6.12h-2.5v-5.8c0-.93-.21-1.64-.62-2.11-.41-.47-1.01-.71-1.78-.71-.84,0-1.51,.28-2.02,.83-.51,.55-.76,1.34-.76,2.37v5.42h-2.5v-5.8c0-.93-.21-1.64-.62-2.11-.41-.47-1.01-.71-1.78-.71-.85,0-1.53,.27-2.03,.82-.5,.55-.75,1.34-.75,2.38v5.42h-2.5V12.38h2.38v1.36c.4-.48,.9-.85,1.5-1.1,.6-.25,1.27-.38,2-.38,.8,0,1.51,.15,2.13,.45,.62,.3,1.11,.74,1.47,1.33,.44-.56,1.01-1,1.7-1.31,.69-.31,1.46-.47,2.3-.47,1.35,0,2.41,.39,3.2,1.17Z"/><path d="M199.36,13.43c.79,.78,1.18,1.95,1.18,3.51v6.12h-2.5v-5.8c0-.93-.21-1.64-.62-2.11-.41-.47-1.01-.71-1.78-.71-.84,0-1.51,.28-2.02,.83-.51,.55-.76,1.34-.76,2.37v5.42h-2.5v-5.8c0-.93-.21-1.64-.62-2.11-.41-.47-1.01-.71-1.78-.71-.85,0-1.53,.27-2.03,.82-.5,.55-.75,1.34-.75,2.38v5.42h-2.5V12.38h2.38v1.36c.4-.48,.9-.85,1.5-1.1,.6-.25,1.27-.38,2-.38,.8,0,1.51,.15,2.13,.45,.62,.3,1.11,.74,1.47,1.33,.44-.56,1.01-1,1.7-1.31,.69-.31,1.46-.47,2.3-.47,1.35,0,2.41,.39,3.2,1.17Z"/><path d="M214.08,12.38v10.68h-2.38v-1.36c-.4,.48-.9,.85-1.5,1.11-.6,.26-1.25,.39-1.94,.39-1.43,0-2.55-.4-3.37-1.19s-1.23-1.97-1.23-3.53v-6.1h2.5v5.76c0,.96,.22,1.68,.65,2.15,.43,.47,1.05,.71,1.85,.71,.89,0,1.6-.28,2.13-.83,.53-.55,.79-1.35,.79-2.39v-5.4h2.5Z"/><path d="M226.65,13.44c.81,.79,1.22,1.95,1.22,3.5v6.12h-2.5v-5.8c0-.93-.22-1.64-.66-2.11-.44-.47-1.07-.71-1.88-.71-.92,0-1.65,.28-2.18,.83-.53,.55-.8,1.35-.8,2.39v5.4h-2.5V12.38h2.38v1.38c.41-.49,.93-.87,1.56-1.12s1.33-.38,2.12-.38c1.35,0,2.43,.39,3.24,1.18Z"/><path d="M238.74,13.39c.83,.75,1.25,1.89,1.25,3.41v6.26h-2.36v-1.3c-.31,.47-.74,.82-1.31,1.07-.57,.25-1.25,.37-2.05,.37s-1.5-.14-2.1-.41c-.6-.27-1.06-.65-1.39-1.14-.33-.49-.49-1.04-.49-1.65,0-.96,.36-1.73,1.07-2.31s1.84-.87,3.37-.87h2.76v-.16c0-.75-.22-1.32-.67-1.72-.45-.4-1.11-.6-1.99-.6-.6,0-1.19,.09-1.77,.28-.58,.19-1.07,.45-1.47,.78l-.98-1.82c.56-.43,1.23-.75,2.02-.98,.79-.23,1.62-.34,2.5-.34,1.57,0,2.78,.38,3.61,1.13Zm-2.28,7.56c.49-.29,.83-.7,1.03-1.23v-1.24h-2.58c-1.44,0-2.16,.47-2.16,1.42,0,.45,.18,.81,.54,1.08,.36,.27,.86,.4,1.5,.4s1.18-.14,1.67-.43Z"/><path d="M253.52,12.38v10.68h-2.38v-1.36c-.4,.48-.9,.85-1.5,1.11-.6,.26-1.25,.39-1.94,.39-1.43,0-2.55-.4-3.37-1.19s-1.23-1.97-1.23-3.53v-6.1h2.5v5.76c0,.96,.22,1.68,.65,2.15,.43,.47,1.05,.71,1.85,.71,.89,0,1.6-.28,2.13-.83,.53-.55,.79-1.35,.79-2.39v-5.4h2.5Z"/><path d="M263.22,22.48c-.29,.24-.65,.42-1.07,.54s-.86,.18-1.33,.18c-1.17,0-2.08-.31-2.72-.92s-.96-1.51-.96-2.68v-5.14h-1.76v-2h1.76v-2.44h2.5v2.44h2.86v2h-2.86v5.08c0,.52,.13,.92,.38,1.19,.25,.27,.62,.41,1.1,.41,.56,0,1.03-.15,1.4-.44l.7,1.78Z"/><path d="M274.92,18.52h-8.38c.15,.79,.53,1.41,1.15,1.87,.62,.46,1.39,.69,2.31,.69,1.17,0,2.14-.39,2.9-1.16l1.34,1.54c-.48,.57-1.09,1.01-1.82,1.3-.73,.29-1.56,.44-2.48,.44-1.17,0-2.21-.23-3.1-.7-.89-.47-1.58-1.12-2.07-1.95-.49-.83-.73-1.78-.73-2.83s.24-1.98,.71-2.81c.47-.83,1.13-1.48,1.97-1.95,.84-.47,1.79-.7,2.84-.7s1.97,.23,2.79,.69,1.46,1.11,1.92,1.94c.46,.83,.69,1.8,.69,2.89,0,.17-.01,.42-.04,.74Zm-7.39-3.55c-.55,.47-.89,1.1-1.01,1.89h6.06c-.11-.77-.43-1.4-.98-1.88-.55-.48-1.23-.72-2.04-.72s-1.48,.24-2.03,.71Zm2.99-6.79h2.94l-3.48,2.74h-2.16l2.7-2.74Z"/><path d="M293.33,8.22v14.84h-2.4v-1.38c-.41,.51-.92,.89-1.53,1.14-.61,.25-1.28,.38-2.01,.38-1.03,0-1.95-.23-2.77-.68-.82-.45-1.46-1.1-1.93-1.93-.47-.83-.7-1.79-.7-2.87s.23-2.03,.7-2.86c.47-.83,1.11-1.47,1.93-1.92,.82-.45,1.74-.68,2.77-.68,.71,0,1.35,.12,1.94,.36,.59,.24,1.09,.6,1.5,1.08v-5.48h2.5Zm-4.02,12.43c.48-.27,.86-.66,1.14-1.17,.28-.51,.42-1.09,.42-1.76s-.14-1.25-.42-1.76c-.28-.51-.66-.9-1.14-1.17-.48-.27-1.02-.41-1.62-.41s-1.14,.14-1.62,.41c-.48,.27-.86,.66-1.14,1.17-.28,.51-.42,1.09-.42,1.76s.14,1.25,.42,1.76c.28,.51,.66,.9,1.14,1.17,.48,.27,1.02,.41,1.62,.41s1.14-.14,1.62-.41Z"/><path d="M306.6,18.52h-8.38c.15,.79,.53,1.41,1.15,1.87,.62,.46,1.39,.69,2.31,.69,1.17,0,2.14-.39,2.9-1.16l1.34,1.54c-.48,.57-1.09,1.01-1.82,1.3-.73,.29-1.56,.44-2.48,.44-1.17,0-2.21-.23-3.1-.7-.89-.47-1.58-1.12-2.07-1.95-.49-.83-.73-1.78-.73-2.83s.24-1.98,.71-2.81c.47-.83,1.13-1.48,1.97-1.95,.84-.47,1.79-.7,2.84-.7s1.97,.23,2.79,.69,1.46,1.11,1.92,1.94c.46,.83,.69,1.8,.69,2.89,0,.17-.01,.42-.04,.74Zm-7.39-3.55c-.55,.47-.89,1.1-1.01,1.89h6.06c-.11-.77-.43-1.4-.98-1.88-.55-.48-1.23-.72-2.04-.72s-1.48,.24-2.03,.71Z"/><path d="M137.49,44.33c-1.14-.62-2.03-1.48-2.68-2.57-.65-1.09-.97-2.33-.97-3.7s.33-2.61,.98-3.7c.65-1.09,1.55-1.95,2.69-2.57s2.42-.93,3.83-.93c1.15,0,2.19,.2,3.14,.6s1.75,.98,2.4,1.74l-1.68,1.58c-1.01-1.09-2.26-1.64-3.74-1.64-.96,0-1.82,.21-2.58,.63s-1.35,1-1.78,1.75c-.43,.75-.64,1.59-.64,2.54s.21,1.79,.64,2.54c.43,.75,1.02,1.33,1.78,1.75s1.62,.63,2.58,.63c1.48,0,2.73-.55,3.74-1.66l1.68,1.6c-.65,.76-1.46,1.34-2.41,1.74-.95,.4-2,.6-3.15,.6-1.41,0-2.69-.31-3.83-.93Z"/><path d="M150.62,44.5c-.87-.47-1.54-1.12-2.03-1.95-.49-.83-.73-1.78-.73-2.83s.24-1.99,.73-2.82c.49-.83,1.16-1.47,2.03-1.94,.87-.47,1.84-.7,2.92-.7s2.07,.23,2.94,.7c.87,.47,1.54,1.11,2.03,1.94,.49,.83,.73,1.77,.73,2.82s-.24,2-.73,2.83c-.49,.83-1.16,1.48-2.03,1.95-.87,.47-1.85,.7-2.94,.7s-2.05-.23-2.92-.7Zm5.2-2.36c.6-.61,.9-1.42,.9-2.42s-.3-1.81-.9-2.42c-.6-.61-1.36-.92-2.28-.92s-1.68,.31-2.27,.92-.89,1.42-.89,2.42,.3,1.81,.89,2.42,1.35,.92,2.27,.92,1.68-.31,2.28-.92Z"/><path d="M178.31,35.43c.79,.78,1.18,1.95,1.18,3.51v6.12h-2.5v-5.8c0-.93-.21-1.64-.62-2.11-.41-.47-1.01-.71-1.78-.71-.84,0-1.51,.28-2.02,.83-.51,.55-.76,1.34-.76,2.37v5.42h-2.5v-5.8c0-.93-.21-1.64-.62-2.11-.41-.47-1.01-.71-1.78-.71-.85,0-1.53,.27-2.03,.82-.5,.55-.75,1.34-.75,2.38v5.42h-2.5v-10.68h2.38v1.36c.4-.48,.9-.85,1.5-1.1,.6-.25,1.27-.38,2-.38,.8,0,1.51,.15,2.13,.45,.62,.3,1.11,.74,1.47,1.33,.44-.56,1.01-1,1.7-1.31,.69-.31,1.46-.47,2.3-.47,1.35,0,2.41,.39,3.2,1.17Z"/><path d="M199.36,35.43c.79,.78,1.18,1.95,1.18,3.51v6.12h-2.5v-5.8c0-.93-.21-1.64-.62-2.11-.41-.47-1.01-.71-1.78-.71-.84,0-1.51,.28-2.02,.83-.51,.55-.76,1.34-.76,2.37v5.42h-2.5v-5.8c0-.93-.21-1.64-.62-2.11-.41-.47-1.01-.71-1.78-.71-.85,0-1.53,.27-2.03,.82-.5,.55-.75,1.34-.75,2.38v5.42h-2.5v-10.68h2.38v1.36c.4-.48,.9-.85,1.5-1.1,.6-.25,1.27-.38,2-.38,.8,0,1.51,.15,2.13,.45,.62,.3,1.11,.74,1.47,1.33,.44-.56,1.01-1,1.7-1.31,.69-.31,1.46-.47,2.3-.47,1.35,0,2.41,.39,3.2,1.17Z"/><path d="M214.08,34.38v10.68h-2.38v-1.36c-.4,.48-.9,.85-1.5,1.11-.6,.26-1.25,.39-1.94,.39-1.43,0-2.55-.4-3.37-1.19s-1.23-1.97-1.23-3.53v-6.1h2.5v5.76c0,.96,.22,1.68,.65,2.15,.43,.47,1.05,.71,1.85,.71,.89,0,1.6-.28,2.13-.83,.53-.55,.79-1.35,.79-2.39v-5.4h2.5Z"/><path d="M226.65,35.44c.81,.79,1.22,1.95,1.22,3.5v6.12h-2.5v-5.8c0-.93-.22-1.64-.66-2.11-.44-.47-1.07-.71-1.88-.71-.92,0-1.65,.28-2.18,.83-.53,.55-.8,1.35-.8,2.39v5.4h-2.5v-10.68h2.38v1.38c.41-.49,.93-.87,1.56-1.12s1.33-.38,2.12-.38c1.35,0,2.43,.39,3.24,1.18Z"/><path d="M241.15,40.52h-8.38c.15,.79,.53,1.41,1.15,1.87,.62,.46,1.39,.69,2.31,.69,1.17,0,2.14-.39,2.9-1.16l1.34,1.54c-.48,.57-1.09,1.01-1.82,1.3-.73,.29-1.56,.44-2.48,.44-1.17,0-2.21-.23-3.1-.7-.89-.47-1.58-1.12-2.07-1.95-.49-.83-.73-1.78-.73-2.83s.24-1.98,.71-2.81c.47-.83,1.13-1.48,1.97-1.95,.84-.47,1.79-.7,2.84-.7s1.97,.23,2.79,.69,1.46,1.11,1.92,1.94c.46,.83,.69,1.8,.69,2.89,0,.17-.01,.42-.04,.74Zm-7.39-3.55c-.55,.47-.89,1.1-1.01,1.89h6.06c-.11-.77-.43-1.4-.98-1.88-.55-.48-1.23-.72-2.04-.72s-1.48,.24-2.03,.71Z"/><path d="M244.34,44.86c-.83-.23-1.49-.51-1.98-.86l.96-1.9c.48,.32,1.06,.58,1.73,.77,.67,.19,1.34,.29,1.99,.29,1.49,0,2.24-.39,2.24-1.18,0-.37-.19-.63-.57-.78-.38-.15-.99-.29-1.83-.42-.88-.13-1.6-.29-2.15-.46-.55-.17-1.03-.48-1.44-.91-.41-.43-.61-1.04-.61-1.81,0-1.01,.42-1.82,1.27-2.43,.85-.61,1.99-.91,3.43-.91,.73,0,1.47,.08,2.2,.25,.73,.17,1.33,.39,1.8,.67l-.96,1.9c-.91-.53-1.93-.8-3.06-.8-.73,0-1.29,.11-1.67,.33-.38,.22-.57,.51-.57,.87,0,.4,.2,.68,.61,.85,.41,.17,1.04,.32,1.89,.47,.85,.13,1.55,.29,2.1,.46s1.02,.47,1.41,.88c.39,.41,.59,1,.59,1.76,0,1-.43,1.8-1.3,2.4-.87,.6-2.05,.9-3.54,.9-.87,0-1.71-.11-2.54-.34Z"/><path d="M137.52,66.33c-1.15-.62-2.05-1.48-2.7-2.58-.65-1.1-.98-2.33-.98-3.69s.33-2.59,.98-3.69c.65-1.1,1.55-1.96,2.7-2.58,1.15-.62,2.43-.93,3.86-.93s2.71,.31,3.86,.93,2.05,1.48,2.7,2.57c.65,1.09,.98,2.33,.98,3.7s-.33,2.61-.98,3.7c-.65,1.09-1.55,1.95-2.7,2.57s-2.43,.93-3.86,.93-2.71-.31-3.86-.93Zm6.38-1.98c.75-.42,1.33-1.01,1.76-1.76,.43-.75,.64-1.6,.64-2.53s-.21-1.78-.64-2.53c-.43-.75-1.01-1.34-1.76-1.76-.75-.42-1.59-.63-2.52-.63s-1.77,.21-2.52,.63-1.33,1.01-1.76,1.76c-.43,.75-.64,1.6-.64,2.53s.21,1.78,.64,2.53c.43,.75,1.01,1.34,1.76,1.76s1.59,.63,2.52,.63,1.77-.21,2.52-.63Z"/><path d="M161.77,56.38v10.68h-2.38v-1.36c-.4,.48-.9,.85-1.5,1.11-.6,.26-1.25,.39-1.94,.39-1.43,0-2.55-.4-3.37-1.19s-1.23-1.97-1.23-3.53v-6.1h2.5v5.76c0,.96,.22,1.68,.65,2.15,.43,.47,1.05,.71,1.85,.71,.89,0,1.6-.28,2.13-.83,.53-.55,.79-1.35,.79-2.39v-5.4h2.5Z"/><path d="M166.97,66.5c-.88-.47-1.57-1.12-2.06-1.95-.49-.83-.74-1.78-.74-2.83s.25-1.99,.74-2.82c.49-.83,1.18-1.47,2.05-1.94,.87-.47,1.87-.7,2.99-.7,1.05,0,1.98,.21,2.77,.64,.79,.43,1.39,1.04,1.79,1.84l-1.92,1.12c-.31-.49-.69-.86-1.15-1.11-.46-.25-.96-.37-1.51-.37-.93,0-1.71,.3-2.32,.91-.61,.61-.92,1.42-.92,2.43s.3,1.82,.91,2.43c.61,.61,1.38,.91,2.33,.91,.55,0,1.05-.12,1.51-.37,.46-.25,.84-.62,1.15-1.11l1.92,1.12c-.41,.8-1.02,1.42-1.81,1.85-.79,.43-1.71,.65-2.75,.65-1.11,0-2.1-.23-2.98-.7Z"/><path d="M185.87,57.44c.81,.79,1.22,1.95,1.22,3.5v6.12h-2.5v-5.8c0-.93-.22-1.64-.66-2.11-.44-.47-1.07-.71-1.88-.71-.92,0-1.65,.28-2.18,.83-.53,.55-.8,1.35-.8,2.39v5.4h-2.5v-14.84h2.5v5.4c.41-.44,.92-.78,1.53-1.01,.61-.23,1.28-.35,2.03-.35,1.35,0,2.43,.39,3.24,1.18Z"/><path d="M200.36,62.52h-8.38c.15,.79,.53,1.41,1.15,1.87,.62,.46,1.39,.69,2.31,.69,1.17,0,2.14-.39,2.9-1.16l1.34,1.54c-.48,.57-1.09,1.01-1.82,1.3-.73,.29-1.56,.44-2.48,.44-1.17,0-2.21-.23-3.1-.7-.89-.47-1.58-1.12-2.07-1.95-.49-.83-.73-1.78-.73-2.83s.24-1.98,.71-2.81c.47-.83,1.13-1.48,1.97-1.95,.84-.47,1.79-.7,2.84-.7s1.97,.23,2.79,.69,1.46,1.11,1.92,1.94c.46,.83,.69,1.8,.69,2.89,0,.17-.01,.42-.04,.74Zm-7.39-3.55c-.55,.47-.89,1.1-1.01,1.89h6.06c-.11-.77-.43-1.4-.98-1.88-.55-.48-1.23-.72-2.04-.72s-1.48,.24-2.03,.71Z"/><path d="M218.31,62.52h-8.38c.15,.79,.53,1.41,1.15,1.87,.62,.46,1.39,.69,2.31,.69,1.17,0,2.14-.39,2.9-1.16l1.34,1.54c-.48,.57-1.09,1.01-1.82,1.3-.73,.29-1.56,.44-2.48,.44-1.17,0-2.21-.23-3.1-.7-.89-.47-1.58-1.12-2.07-1.95-.49-.83-.73-1.78-.73-2.83s.24-1.98,.71-2.81c.47-.83,1.13-1.48,1.97-1.95,.84-.47,1.79-.7,2.84-.7s1.97,.23,2.79,.69,1.46,1.11,1.92,1.94c.46,.83,.69,1.8,.69,2.89,0,.17-.01,.42-.04,.74Zm-7.39-3.55c-.55,.47-.89,1.1-1.01,1.89h6.06c-.11-.77-.43-1.4-.98-1.88-.55-.48-1.23-.72-2.04-.72s-1.48,.24-2.03,.71Z"/><path d="M227.17,66.48c-.29,.24-.65,.42-1.07,.54s-.86,.18-1.33,.18c-1.17,0-2.08-.31-2.72-.92s-.96-1.51-.96-2.68v-5.14h-1.76v-2h1.76v-2.44h2.5v2.44h2.86v2h-2.86v5.08c0,.52,.13,.92,.38,1.19,.25,.27,.62,.41,1.1,.41,.56,0,1.03-.15,1.4-.44l.7,1.78Z"/><path d="M147.7,89.06l-.02-9.28-4.6,7.68h-1.16l-4.6-7.56v9.16h-2.48v-14h2.14l5.56,9.28,5.46-9.28h2.14l.02,14h-2.46Z"/><path d="M155.57,88.5c-.87-.47-1.54-1.12-2.03-1.95-.49-.83-.73-1.78-.73-2.83s.24-1.99,.73-2.82c.49-.83,1.16-1.47,2.03-1.94,.87-.47,1.84-.7,2.92-.7s2.07,.23,2.94,.7c.87,.47,1.54,1.11,2.03,1.94,.49,.83,.73,1.77,.73,2.82s-.24,2-.73,2.83c-.49,.83-1.16,1.48-2.03,1.95-.87,.47-1.85,.7-2.94,.7s-2.05-.23-2.92-.7Zm5.2-2.36c.6-.61,.9-1.42,.9-2.42s-.3-1.81-.9-2.42c-.6-.61-1.36-.92-2.28-.92s-1.68,.31-2.27,.92-.89,1.42-.89,2.42,.3,1.81,.89,2.42,1.35,.92,2.27,.92,1.68-.31,2.28-.92Z"/><path d="M175.89,79.44c.81,.79,1.22,1.95,1.22,3.5v6.12h-2.5v-5.8c0-.93-.22-1.64-.66-2.11-.44-.47-1.07-.71-1.88-.71-.92,0-1.65,.28-2.18,.83-.53,.55-.8,1.35-.8,2.39v5.4h-2.5v-10.68h2.38v1.38c.41-.49,.93-.87,1.56-1.12s1.33-.38,2.12-.38c1.35,0,2.43,.39,3.24,1.18Z"/><path d="M186.7,88.48c-.29,.24-.65,.42-1.07,.54s-.86,.18-1.33,.18c-1.17,0-2.08-.31-2.72-.92s-.96-1.51-.96-2.68v-5.14h-1.76v-2h1.76v-2.44h2.5v2.44h2.86v2h-2.86v5.08c0,.52,.13,.92,.38,1.19,.25,.27,.62,.41,1.1,.41,.56,0,1.03-.15,1.4-.44l.7,1.78Z"/><path d="M196.45,79.39c.83,.75,1.25,1.89,1.25,3.41v6.26h-2.36v-1.3c-.31,.47-.74,.82-1.31,1.07-.57,.25-1.25,.37-2.05,.37s-1.5-.14-2.1-.41c-.6-.27-1.06-.65-1.39-1.14-.33-.49-.49-1.04-.49-1.65,0-.96,.36-1.73,1.07-2.31s1.84-.87,3.37-.87h2.76v-.16c0-.75-.22-1.32-.67-1.72-.45-.4-1.11-.6-1.99-.6-.6,0-1.19,.09-1.77,.28-.58,.19-1.07,.45-1.47,.78l-.98-1.82c.56-.43,1.23-.75,2.02-.98,.79-.23,1.62-.34,2.5-.34,1.57,0,2.78,.38,3.61,1.13Zm-2.28,7.56c.49-.29,.83-.7,1.03-1.23v-1.24h-2.58c-1.44,0-2.16,.47-2.16,1.42,0,.45,.18,.81,.54,1.08,.36,.27,.86,.4,1.5,.4s1.18-.14,1.67-.43Z"/><path d="M211.6,78.38v9.06c0,3.76-1.92,5.64-5.76,5.64-1.03,0-2-.13-2.92-.39-.92-.26-1.68-.64-2.28-1.13l1.12-1.88c.47,.39,1.06,.7,1.77,.93s1.44,.35,2.17,.35c1.17,0,2.03-.27,2.58-.8,.55-.53,.82-1.35,.82-2.44v-.56c-.43,.47-.95,.82-1.56,1.06-.61,.24-1.29,.36-2.02,.36-1.01,0-1.93-.22-2.75-.65-.82-.43-1.47-1.04-1.94-1.83-.47-.79-.71-1.69-.71-2.7s.24-1.91,.71-2.69c.47-.78,1.12-1.38,1.94-1.81,.82-.43,1.74-.64,2.75-.64,.77,0,1.48,.13,2.11,.38,.63,.25,1.16,.64,1.59,1.16v-1.42h2.38Zm-3.37,7.23c.61-.57,.91-1.3,.91-2.21s-.3-1.62-.91-2.18c-.61-.56-1.38-.84-2.33-.84s-1.74,.28-2.35,.84-.91,1.29-.91,2.18,.3,1.64,.91,2.21c.61,.57,1.39,.85,2.35,.85s1.72-.28,2.33-.85Z"/><path d="M224.17,79.44c.81,.79,1.22,1.95,1.22,3.5v6.12h-2.5v-5.8c0-.93-.22-1.64-.66-2.11-.44-.47-1.07-.71-1.88-.71-.92,0-1.65,.28-2.18,.83-.53,.55-.8,1.35-.8,2.39v5.4h-2.5v-10.68h2.38v1.38c.41-.49,.93-.87,1.56-1.12s1.33-.38,2.12-.38c1.35,0,2.43,.39,3.24,1.18Z"/><path d="M238.67,84.52h-8.38c.15,.79,.53,1.41,1.15,1.87,.62,.46,1.39,.69,2.31,.69,1.17,0,2.14-.39,2.9-1.16l1.34,1.54c-.48,.57-1.09,1.01-1.82,1.3-.73,.29-1.56,.44-2.48,.44-1.17,0-2.21-.23-3.1-.7-.89-.47-1.58-1.12-2.07-1.95-.49-.83-.73-1.78-.73-2.83s.24-1.98,.71-2.81c.47-.83,1.13-1.48,1.97-1.95,.84-.47,1.79-.7,2.84-.7s1.97,.23,2.79,.69,1.46,1.11,1.92,1.94c.46,.83,.69,1.8,.69,2.89,0,.17-.01,.42-.04,.74Zm-7.39-3.55c-.55,.47-.89,1.1-1.01,1.89h6.06c-.11-.77-.43-1.4-.98-1.88-.55-.48-1.23-.72-2.04-.72s-1.48,.24-2.03,.71Z"/></g></g></g></svg>